<?xml version="1.0" standalone="no"?>
<!DOCTYPE svg PUBLIC "-//W3C//DTD SVG 20010904//EN"
 "http://www.w3.org/TR/2001/REC-SVG-20010904/DTD/svg10.dtd">
<svg version="1.0" xmlns="http://www.w3.org/2000/svg"
 width="310.000000pt" height="310.000000pt" viewBox="0 0 310.000000 310.000000"
 preserveAspectRatio="xMidYMid meet">
<metadata>
Created by potrace 1.11, written by Peter Selinger 2001-2013
</metadata>
<g transform="translate(0.000000,310.000000) scale(0.100000,-0.100000)"
fill="#000000" stroke="none">
<path d="M1486 2761 c-3 -5 -27 -9 -52 -9 -28 0 -50 -6 -55 -14 -5 -7 -9 -8
-9 -2 0 6 -7 11 -15 11 -8 0 -11 -5 -8 -10 4 -6 0 -8 -10 -4 -10 3 -17 2 -17
-3 0 -5 -7 -7 -16 -3 -9 3 -20 0 -25 -8 -7 -12 -9 -12 -9 0 0 11 -3 11 -15 1
-8 -6 -19 -9 -25 -5 -5 3 -10 1 -10 -5 0 -6 -5 -8 -10 -5 -6 4 -17 1 -25 -5
-8 -6 -19 -9 -25 -5 -5 3 -10 -2 -10 -12 0 -14 -2 -15 -9 -4 -6 9 -11 10 -15
2 -4 -6 -15 -11 -25 -11 -10 0 -24 -6 -31 -14 -6 -8 -18 -12 -26 -9 -8 3 -14
0 -14 -6 0 -6 -7 -11 -15 -11 -8 0 -15 -5 -15 -11 0 -5 -4 -8 -10 -4 -5 3 -18
-3 -29 -14 -13 -13 -22 -16 -30 -8 -7 7 -9 4 -6 -12 3 -19 2 -21 -10 -11 -12
10 -15 9 -15 -6 0 -16 -2 -17 -10 -4 -8 13 -10 12 -10 -3 0 -10 -4 -15 -10
-12 -5 3 -10 1 -10 -5 0 -6 -5 -8 -12 -4 -8 5 -9 2 -5 -10 5 -12 2 -16 -11
-14 -10 2 -16 -3 -14 -10 1 -8 -2 -11 -7 -7 -6 3 -30 -14 -55 -39 -25 -24 -47
-41 -50 -38 -4 3 -6 -2 -6 -11 0 -10 -5 -17 -11 -17 -5 0 -7 -5 -4 -10 4 -6 3
-10 -2 -9 -21 4 -35 -2 -30 -14 2 -6 -2 -18 -9 -25 -8 -7 -14 -10 -14 -6 0 4
-9 -3 -20 -16 -12 -13 -18 -29 -16 -36 3 -9 -1 -11 -11 -7 -11 4 -14 2 -9 -5
4 -7 2 -12 -3 -12 -6 0 -11 -7 -11 -16 0 -8 -4 -13 -9 -10 -5 3 -12 -1 -15
-10 -4 -10 -2 -13 7 -9 6 4 2 -2 -9 -12 -12 -10 -20 -26 -19 -35 2 -12 -2 -15
-13 -11 -11 5 -14 2 -9 -9 3 -10 0 -19 -9 -22 -8 -3 -14 -14 -14 -25 0 -11 -5
-23 -11 -27 -6 -3 -9 -14 -6 -24 3 -13 0 -17 -9 -13 -10 3 -12 0 -8 -10 3 -10
-1 -17 -13 -20 -16 -4 -16 -5 0 -6 9 0 17 -5 17 -11 0 -5 -6 -7 -14 -4 -10 4
-13 -3 -11 -25 1 -18 -2 -29 -9 -28 -6 1 -10 -6 -8 -17 2 -10 -1 -15 -7 -12
-6 4 -7 -4 -1 -24 5 -17 5 -28 0 -25 -4 2 -13 -2 -19 -9 -7 -9 -8 -17 -2 -20
11 -7 3 -44 -13 -65 -9 -12 -8 -13 3 -6 11 6 12 5 5 -6 -14 -23 -15 -51 -2
-44 7 4 4 -1 -6 -9 -15 -12 -16 -16 -5 -16 12 0 12 -2 0 -9 -11 -7 -11 -9 0
-14 10 -4 10 -6 2 -6 -7 -1 -13 -6 -13 -12 0 -5 4 -8 9 -5 11 7 8 -21 -4 -31
-4 -4 -5 -2 0 6 6 10 4 12 -4 7 -9 -6 -8 -13 6 -29 10 -11 13 -17 6 -14 -6 4
-14 3 -18 -3 -3 -5 -2 -10 4 -10 5 0 8 -11 5 -24 -2 -14 0 -36 6 -50 7 -19 6
-26 -2 -26 -7 0 -4 -6 7 -13 14 -11 15 -16 5 -22 -9 -5 -11 -4 -6 3 4 7 2 12
-3 12 -14 0 -14 -17 -2 -25 6 -3 8 -14 6 -25 -2 -11 1 -20 7 -20 6 0 5 -7 -3
-17 -8 -10 -9 -14 -2 -10 7 5 12 1 12 -10 1 -40 5 -53 15 -53 6 0 4 -5 -4 -10
-11 -7 -11 -10 -2 -10 7 0 10 -5 7 -10 -3 -6 1 -13 10 -16 13 -6 14 -8 3 -15
-8 -6 -9 -12 -3 -16 10 -8 16 -25 20 -58 1 -11 7 -19 13 -18 6 2 9 -4 6 -12
-4 -9 0 -15 7 -15 11 0 11 -3 -1 -10 -10 -6 -11 -10 -2 -10 6 0 12 -7 12 -16
0 -8 5 -12 11 -8 8 4 8 0 0 -15 -9 -16 -9 -21 -1 -19 7 2 19 -8 28 -22 11 -15
12 -21 4 -16 -11 7 -11 4 -1 -12 7 -12 17 -18 23 -15 5 4 6 1 1 -7 -5 -8 -1
-18 10 -27 11 -7 16 -13 12 -13 -5 0 -2 -6 5 -14 7 -8 16 -12 20 -9 4 2 5 -3
2 -11 -3 -9 -1 -16 6 -16 7 0 9 -8 5 -22 -4 -14 -3 -18 2 -11 6 8 14 9 23 3
13 -9 13 -10 0 -10 -9 -1 -5 -6 10 -15 14 -8 21 -14 17 -15 -4 0 4 -11 18 -25
14 -14 25 -30 25 -35 0 -6 7 -10 15 -10 13 0 19 -12 16 -32 0 -4 6 -5 14 -2 9
4 15 0 15 -10 0 -9 4 -16 9 -16 6 0 22 -11 37 -25 14 -13 32 -22 38 -18 6 3 8
3 4 -2 -7 -8 20 -40 33 -40 5 0 17 -7 27 -16 20 -17 53 -33 64 -31 4 1 4 -6 1
-16 -6 -14 -4 -15 9 -4 12 10 18 9 28 -3 7 -8 17 -12 23 -8 6 3 7 1 3 -5 -4
-7 -1 -12 8 -12 9 0 16 -5 16 -11 0 -5 5 -7 10 -4 6 3 10 2 10 -4 0 -6 7 -7
17 -4 12 5 14 3 8 -8 -4 -8 -5 -11 0 -7 4 4 14 3 22 -4 7 -6 16 -8 20 -5 3 4
12 -1 20 -11 14 -16 14 -16 9 2 -6 16 -4 17 9 6 8 -7 12 -17 8 -24 -4 -6 0 -5
9 2 13 10 17 10 21 0 4 -10 6 -10 6 0 1 10 5 10 17 -2 12 -13 20 -14 37 -4 19
10 20 9 10 -4 -11 -12 -6 -15 35 -17 25 -1 50 -8 54 -14 6 -9 10 -9 17 2 6 10
10 10 16 1 4 -6 19 -11 33 -10 44 3 53 1 47 -13 -4 -6 0 -4 8 5 12 16 15 16
29 2 12 -12 17 -13 23 -3 6 8 4 10 -5 4 -9 -6 -11 -4 -6 4 6 9 12 8 26 -4 14
-12 20 -13 26 -4 5 8 3 10 -6 4 -9 -6 -11 -4 -6 4 6 9 13 8 29 -6 11 -10 17
-13 14 -6 -4 6 -3 14 3 18 5 3 10 -2 10 -12 0 -11 3 -14 8 -7 10 15 51 24 58
12 4 -5 13 -3 23 6 10 9 22 12 30 6 18 -10 43 -1 35 12 -5 7 -1 7 11 0 14 -7
22 -6 33 4 10 10 18 11 33 4 15 -8 21 -7 25 4 3 8 12 12 20 9 8 -3 23 2 33 11
13 12 21 14 26 6 5 -8 11 -8 21 1 7 6 11 16 7 22 -4 6 -1 7 8 1 19 -11 40 -14
34 -4 -3 4 3 14 12 21 11 10 14 10 9 2 -5 -9 -2 -11 8 -7 9 3 13 10 10 15 -3
5 2 6 10 3 9 -3 16 -1 16 4 0 6 9 9 20 7 11 -2 19 1 17 8 -1 7 6 11 16 9 16
-3 22 9 18 32 -1 5 4 4 12 -2 11 -10 17 -9 26 1 6 8 7 17 3 21 -4 4 -2 7 3 6
25 -5 46 1 39 12 -5 8 -2 9 10 5 14 -5 17 -3 12 8 -3 8 -2 14 2 14 22 -4 42 2
37 11 -3 6 -2 10 4 10 5 0 25 16 45 35 20 19 36 32 36 29 0 -2 6 1 14 8 8 7
11 17 8 22 -3 5 2 6 12 3 9 -4 15 -3 11 3 -3 5 9 24 27 42 18 18 31 37 30 42
-2 5 5 5 15 2 9 -4 14 -4 11 0 -4 4 -2 16 4 28 7 11 11 24 10 29 -1 4 5 7 15
7 9 0 13 3 10 7 -4 3 2 13 14 21 11 8 18 20 15 27 -2 7 2 16 10 19 8 3 14 12
14 21 0 8 4 15 9 15 6 0 8 9 6 21 -3 14 0 19 8 16 8 -3 14 4 15 16 0 12 6 23
12 25 5 2 7 9 4 14 -4 6 1 17 11 25 11 7 13 13 7 13 -8 0 -5 8 7 21 11 12 18
32 17 49 -1 17 2 26 8 23 5 -4 7 1 3 10 -4 10 -1 17 6 17 8 0 6 4 -3 10 -13 8
-12 10 4 10 15 0 16 3 6 15 -10 12 -10 15 0 15 7 0 10 7 6 15 -3 8 0 15 7 15
8 0 6 4 -3 10 -13 9 -7 14 13 11 10 -1 4 22 -8 32 -7 4 -6 10 1 15 6 4 10 24
10 45 -1 20 1 37 5 37 4 0 10 7 13 16 5 14 4 15 -9 4 -13 -11 -14 -10 -9 6 4
10 12 25 18 33 9 12 8 13 -3 6 -11 -6 -13 -4 -8 8 3 9 2 19 -3 22 -6 4 -7 13
-1 23 6 11 6 24 0 35 -8 13 -7 15 7 10 13 -5 15 -3 8 8 -5 8 -14 29 -20 47
-10 28 -10 31 2 21 12 -10 13 -8 8 7 -4 10 -12 25 -18 33 -8 11 -8 15 2 19 9
3 10 7 2 17 -6 7 -12 29 -13 49 -1 20 -7 36 -13 36 -6 0 -9 13 -6 30 3 19 0
30 -7 30 -7 0 -9 5 -6 10 3 6 0 10 -7 10 -9 0 -9 3 2 10 11 7 11 10 2 10 -7 0
-10 5 -7 10 3 6 2 10 -4 10 -5 0 -8 9 -6 20 2 11 0 18 -5 15 -5 -3 -11 -1 -15
5 -3 5 0 10 7 10 11 0 11 2 0 9 -7 4 -14 18 -15 30 -1 14 -6 20 -15 16 -10 -3
-11 1 -7 16 5 16 4 19 -6 14 -9 -6 -11 -3 -6 8 4 11 1 17 -8 17 -8 0 -15 5
-15 11 0 5 6 7 13 3 8 -5 8 -3 -2 9 -7 9 -18 14 -24 10 -6 -3 -7 -1 -3 6 4 6
-1 19 -11 29 -11 9 -12 13 -4 7 12 -9 12 -7 1 12 -8 12 -17 20 -20 18 -3 -2
-12 6 -20 18 -11 19 -11 21 1 12 8 -5 5 -1 -6 10 -12 11 -25 28 -28 38 -4 9
-13 17 -22 17 -8 0 -15 9 -15 19 0 11 -5 23 -12 27 -7 5 -8 3 -3 -7 5 -8 -3
-3 -18 11 -15 14 -27 31 -27 38 0 7 -4 10 -10 7 -5 -3 -10 1 -10 10 0 9 -4 13
-10 10 -5 -3 -10 -2 -10 3 0 5 -15 20 -34 33 -21 14 -32 29 -29 38 4 14 4 14
-6 1 -10 -13 -13 -13 -22 3 -6 9 -14 15 -20 12 -5 -4 -9 -1 -9 5 0 6 -5 8 -12
4 -6 -4 -9 -3 -5 2 3 5 -2 18 -10 29 -13 16 -14 16 -10 3 5 -15 4 -16 -13 -6
-10 7 -17 16 -14 20 3 4 -2 5 -10 2 -9 -3 -16 -1 -16 5 0 6 -9 11 -19 11 -11
0 -23 5 -27 12 -5 7 -3 8 6 3 8 -5 11 -4 7 3 -4 5 -15 9 -25 8 -9 -2 -20 1
-23 6 -3 5 -15 10 -27 11 -11 0 -18 5 -16 9 3 4 -4 8 -16 8 -12 0 -19 4 -16 8
3 5 -1 9 -9 9 -8 0 -11 -5 -8 -11 4 -5 -9 1 -27 14 -18 13 -30 18 -26 11 6
-10 3 -10 -13 -2 -12 6 -30 16 -42 22 -12 6 -24 8 -27 5 -3 -3 1 -6 8 -6 7 0
10 -3 7 -6 -4 -4 -13 -1 -22 6 -8 7 -26 10 -40 8 -14 -3 -28 -1 -31 4 -3 4
-10 5 -16 2 -7 -4 -8 -2 -4 4 4 7 -1 10 -14 9 -11 -1 -20 -6 -21 -12 0 -5 -4
-1 -9 10 -5 11 -9 14 -9 8 -1 -7 -6 -13 -12 -13 -5 0 -7 5 -3 12 4 7 3 8 -5 4
-6 -4 -18 -3 -26 4 -11 9 -12 7 -9 -12 5 -20 4 -21 -6 -5 -6 9 -15 15 -21 12
-5 -4 -9 0 -9 7 -1 8 -6 6 -15 -6 -8 -11 -15 -14 -15 -8 0 7 -5 12 -11 12 -5
0 -7 -6 -4 -12 4 -7 -1 -4 -9 6 -10 13 -16 15 -16 7 0 -10 -3 -11 -14 -2 -9 7
-17 8 -20 2z m41 -168 c3 4 13 1 21 -6 10 -8 13 -8 9 -1 -4 7 0 15 9 18 12 5
15 2 10 -9 -3 -10 -2 -13 5 -9 15 9 69 12 69 3 0 -3 14 -5 30 -3 19 2 30 -1
30 -9 0 -8 4 -7 10 3 9 13 10 13 10 0 0 -12 2 -12 9 -2 7 11 9 11 14 -1 3 -9
16 -13 31 -12 14 2 26 -1 26 -6 0 -5 5 -9 11 -9 5 0 7 4 4 10 -3 6 1 7 9 4 9
-3 13 -10 10 -15 -3 -5 6 -5 20 1 21 8 24 7 19 -7 -5 -12 -2 -15 10 -10 9 3
17 2 17 -3 0 -5 9 -7 20 -5 11 2 18 0 15 -6 -4 -5 6 -9 20 -9 15 0 24 -4 20
-10 -3 -5 3 -10 14 -10 12 0 21 -5 21 -11 0 -5 4 -8 9 -4 5 3 17 -2 25 -11 12
-11 16 -12 16 -2 1 7 7 2 14 -11 10 -18 15 -20 19 -10 4 11 6 11 6 -2 1 -8 17
-23 36 -32 20 -9 38 -24 41 -32 4 -8 13 -15 20 -15 8 0 17 -7 20 -15 4 -8 16
-15 28 -15 12 0 16 -3 10 -8 -12 -7 0 -25 19 -30 4 -1 7 -5 8 -9 0 -5 11 -14
25 -21 13 -7 24 -20 24 -28 0 -8 5 -12 10 -9 6 4 13 -8 17 -25 4 -22 8 -28 14
-18 7 10 9 10 10 -2 1 -8 1 -18 0 -22 0 -5 7 -8 16 -8 9 0 13 -3 10 -7 -4 -3
1 -12 11 -20 9 -8 11 -11 4 -8 -11 6 -12 3 -2 -14 6 -13 16 -19 23 -15 7 4 9
4 5 -1 -11 -11 12 -36 25 -28 6 3 7 1 3 -6 -4 -6 -12 -9 -17 -6 -5 3 -6 -1 -3
-9 3 -9 10 -14 14 -11 10 6 34 -51 26 -63 -3 -6 1 -13 10 -16 8 -3 12 -10 9
-16 -3 -5 2 -10 12 -11 16 0 16 -1 -2 -9 -11 -5 -15 -9 -8 -9 7 -1 10 -8 6
-18 -4 -11 -3 -14 5 -9 8 5 12 -1 12 -16 0 -13 4 -30 10 -38 6 -9 5 -17 -3
-22 -8 -5 -5 -8 8 -8 17 0 17 -2 5 -10 -8 -5 -10 -10 -3 -10 6 0 10 -11 8 -25
-1 -14 2 -25 7 -25 5 0 6 -5 3 -10 -4 -6 -1 -17 5 -25 9 -11 9 -15 1 -15 -16
0 -14 -16 5 -34 14 -15 14 -16 -2 -16 -16 0 -15 -2 2 -22 10 -12 14 -18 8 -15
-15 9 -27 -20 -12 -29 7 -5 8 -2 3 7 -5 8 -4 10 0 6 13 -12 15 -36 3 -44 -7
-4 -8 -1 -3 7 6 9 4 11 -4 5 -9 -5 -10 -10 -2 -18 15 -15 14 -30 -1 -20 -7 4
-5 -5 5 -20 16 -25 16 -26 0 -20 -15 6 -16 4 -5 -9 10 -13 9 -18 -4 -29 -14
-12 -14 -14 2 -26 17 -12 17 -13 0 -13 -15 0 -16 -3 -7 -14 8 -10 9 -16 1 -21
-5 -3 -10 -17 -10 -31 0 -13 -6 -24 -12 -25 -9 0 -9 -2 1 -6 9 -4 10 -8 2 -12
-6 -4 -13 -18 -15 -31 -2 -14 -6 -27 -7 -30 -1 -3 -3 -12 -3 -20 -1 -8 -8 -14
-14 -12 -10 2 -10 -3 -1 -19 8 -15 8 -19 0 -15 -10 6 -15 -6 -12 -26 0 -5 -3
-8 -9 -8 -5 0 -10 -7 -10 -15 0 -8 -5 -15 -12 -15 -6 0 -8 -3 -5 -7 4 -3 0
-15 -10 -25 -9 -10 -13 -18 -9 -18 4 0 2 -9 -4 -20 -6 -11 -16 -17 -22 -14 -6
4 -8 3 -5 -4 9 -14 -3 -43 -14 -36 -5 3 -9 1 -9 -5 0 -6 -10 -20 -22 -31 -14
-13 -17 -20 -8 -17 8 2 12 2 7 0 -4 -3 -5 -8 -2 -13 3 -4 -5 -6 -17 -2 -13 3
-19 1 -15 -5 4 -6 0 -16 -8 -23 -8 -7 -12 -16 -9 -21 3 -5 -2 -6 -11 -3 -10 4
-15 2 -13 -7 2 -8 -3 -13 -9 -11 -12 2 -17 -10 -14 -30 0 -4 -6 -5 -14 -2 -13
5 -20 -6 -16 -28 0 -4 -6 -5 -14 -2 -10 4 -15 0 -15 -12 0 -15 -2 -16 -9 -5
-7 11 -10 9 -16 -8 -3 -12 -11 -19 -16 -16 -5 4 -9 0 -9 -9 0 -9 -8 -13 -24
-12 -20 3 -23 -1 -21 -21 2 -17 -1 -21 -8 -14 -8 8 -17 6 -31 -7 -14 -12 -17
-13 -11 -2 8 13 6 13 -8 1 -9 -7 -15 -17 -12 -21 3 -5 -6 -7 -19 -6 -17 2 -26
-3 -29 -16 -4 -12 -11 -16 -21 -12 -10 4 -26 -2 -38 -12 -12 -11 -18 -13 -14
-6 7 11 4 11 -12 1 -12 -7 -18 -18 -14 -24 3 -5 -2 -4 -11 4 -16 13 -22 8 -18
-13 1 -5 -5 -4 -13 4 -9 7 -16 8 -16 2 0 -6 -11 -9 -25 -7 -14 1 -25 -2 -25
-7 0 -6 -7 -7 -16 -4 -12 5 -15 2 -10 -9 4 -11 2 -14 -7 -8 -17 10 -37 13 -37
4 0 -11 -33 -10 -47 1 -9 7 -15 5 -19 -6 -4 -11 -11 -13 -22 -7 -10 6 -21 4
-30 -6 -10 -10 -17 -11 -22 -4 -7 12 -37 11 -59 -3 -10 -7 -12 -6 -6 4 6 10 2
11 -19 6 -15 -4 -25 -3 -22 2 7 12 -37 9 -46 -3 -5 -6 -8 -5 -8 4 0 10 -3 11
-14 2 -11 -10 -17 -8 -25 6 -8 14 -10 15 -11 3 0 -13 -1 -13 -10 0 -9 13 -10
13 -10 0 -1 -12 -3 -12 -11 2 -5 10 -16 15 -25 11 -9 -3 -20 0 -25 8 -5 8 -9
9 -9 3 0 -6 -7 -11 -15 -11 -9 0 -14 6 -11 13 3 7 -2 10 -15 7 -12 -3 -19 0
-19 8 0 11 -2 11 -10 -1 -7 -11 -10 -11 -10 -2 0 7 -5 10 -10 7 -5 -3 -10 -1
-10 5 0 6 -5 8 -10 5 -5 -3 -10 -1 -10 4 0 6 -3 10 -7 10 -30 -5 -53 3 -54 19
0 11 -2 12 -6 4 -4 -10 -9 -9 -19 5 -13 17 -14 17 -8 -2 4 -14 0 -12 -13 7
-14 20 -23 25 -31 18 -7 -6 -10 -7 -7 -4 7 11 -24 36 -36 28 -8 -4 -9 -3 -5 4
6 11 -6 16 -26 13 -5 0 -8 6 -8 15 0 8 -4 12 -10 9 -5 -3 -10 -1 -10 5 0 6 -3
9 -7 7 -9 -6 -34 19 -27 26 3 2 -11 12 -31 21 -19 9 -35 24 -35 32 0 8 -4 12
-10 9 -5 -3 -10 1 -10 9 0 9 -4 16 -8 16 -5 0 -17 7 -28 16 -10 8 -12 12 -4 9
8 -4 3 4 -12 17 -16 14 -28 30 -28 35 0 6 -10 15 -22 21 -13 6 -17 11 -11 11
9 1 8 7 -4 20 -9 11 -21 17 -26 14 -6 -4 -8 1 -4 11 4 9 -1 24 -11 35 -17 17
-24 35 -25 58 0 7 -5 11 -11 10 -6 -1 -10 8 -9 21 2 13 -1 21 -7 17 -6 -3 -10
1 -10 10 0 9 -4 14 -9 11 -5 -3 -9 0 -8 7 1 41 -4 58 -16 51 -6 -4 -9 -4 -5 1
4 4 2 15 -5 23 -9 13 -9 14 1 8 6 -4 12 -2 12 3 0 6 -5 11 -11 11 -6 0 -9 7
-5 15 3 8 1 15 -3 15 -5 0 -8 12 -6 26 1 14 -4 32 -12 40 -11 11 -12 14 -1 14
10 0 9 3 -2 10 -13 9 -13 10 0 10 13 0 13 1 0 10 -8 5 -10 10 -5 10 6 0 3 5
-5 10 -10 6 -11 10 -2 10 6 0 12 5 12 11 0 5 -4 8 -8 5 -4 -2 -6 18 -5 46 3
39 1 48 -9 42 -10 -6 -10 -4 1 9 7 9 11 23 8 31 -3 7 0 19 6 26 9 9 9 11 1 7
-7 -4 -14 0 -17 8 -4 8 -1 12 6 9 8 -3 12 8 13 31 1 19 -3 32 -7 29 -16 -10
-9 9 9 23 16 14 16 14 -1 9 -17 -5 -17 -4 -3 16 12 17 13 25 3 37 -10 12 -9
13 2 6 11 -6 13 -3 9 13 -4 13 -2 20 4 16 5 -4 8 4 6 17 -2 15 2 23 9 22 7 -2
10 4 6 13 -3 9 0 20 8 25 10 6 11 9 1 9 -9 0 -8 7 4 25 9 14 12 25 8 25 -5 0
-1 5 8 10 10 6 15 19 13 30 -2 11 0 20 4 20 5 0 11 9 14 21 4 14 10 18 19 13
10 -6 10 -4 -1 9 -9 12 -10 17 -2 17 7 0 9 5 6 11 -4 6 3 13 15 16 16 4 18 8
8 14 -10 7 -11 9 0 9 7 0 10 5 7 10 -3 6 2 10 12 10 14 0 15 2 4 9 -11 7 -9
10 7 15 12 4 19 13 16 21 -3 7 0 16 7 21 8 4 10 3 5 -4 -4 -7 -5 -12 -1 -12 3
0 10 12 15 26 6 15 14 22 22 18 7 -4 8 -3 4 4 -4 7 -2 12 3 12 6 0 11 7 11 16
0 8 5 12 10 9 6 -3 10 -1 10 6 0 13 46 59 59 59 16 0 43 39 35 52 -6 11 -5 11
8 0 13 -10 17 -10 22 3 3 8 13 15 21 15 9 0 14 4 11 8 -2 4 9 14 25 21 16 7
27 17 24 21 -3 5 4 7 15 5 11 -2 25 4 32 14 7 10 23 17 35 16 16 -1 20 2 13
10 -6 7 -2 11 13 12 12 1 23 7 25 13 2 5 8 7 13 4 6 -3 16 0 24 6 8 7 15 9 15
4 0 -4 7 1 16 12 8 10 13 13 9 7 -3 -7 -2 -13 4 -13 5 0 11 4 13 10 2 5 15 11
31 12 15 1 27 6 27 10 0 4 3 7 8 7 28 -5 52 2 46 14 -5 7 -1 7 10 -2 10 -9 20
-11 24 -5 6 8 24 11 105 13 20 1 26 5 21 14 -5 8 -2 7 9 -2 10 -8 20 -11 24
-8z m1163 -1447 c0 -3 -4 -8 -10 -11 -5 -3 -10 -1 -10 4 0 6 5 11 10 11 6 0
10 -2 10 -4z"/>
<path d="M1554 2495 c3 -8 0 -15 -7 -15 -7 0 -3 -7 7 -15 11 -8 15 -15 9 -15
-15 0 -21 -30 -11 -57 4 -13 4 -23 0 -23 -9 0 -3 -100 6 -101 4 0 15 -2 24 -4
10 -2 21 2 25 7 4 7 1 8 -7 3 -8 -5 -11 -4 -6 3 4 6 13 9 20 6 7 -3 16 2 20
11 5 13 10 14 27 4 17 -9 20 -8 14 2 -6 9 -3 11 9 6 11 -5 15 -3 10 5 -5 8 -2
9 10 5 10 -4 15 -3 11 3 -3 6 3 10 14 10 12 0 21 5 21 10 0 6 14 10 31 10 20
0 28 4 23 12 -5 7 -3 8 5 4 7 -5 19 0 27 10 9 11 12 13 8 5 -5 -10 -3 -12 5
-7 16 10 -7 39 -25 32 -7 -3 -18 2 -25 10 -7 9 -23 14 -36 11 -13 -2 -26 0
-30 6 -4 6 -1 7 7 2 9 -5 11 -4 6 3 -4 7 -16 12 -27 12 -14 0 -18 4 -13 13 6
8 3 8 -9 -1 -14 -12 -19 -11 -33 3 -9 9 -23 14 -31 11 -8 -3 -12 -2 -9 3 7 11
-22 23 -35 15 -5 -3 -9 0 -9 5 0 6 -7 11 -16 11 -10 0 -14 -6 -10 -15z"/>
<path d="M1573 2174 c0 -7 5 -10 10 -7 7 4 8 -1 3 -13 -12 -28 -15 -74 -5 -68
5 3 5 -6 -1 -20 -5 -14 -6 -26 -2 -26 10 0 8 -42 -2 -58 -4 -7 -2 -12 6 -12 9
0 9 -3 -2 -10 -12 -8 -12 -10 -1 -10 11 0 11 -3 0 -17 -11 -13 -11 -17 -1 -21
10 -3 10 -7 1 -18 -9 -11 -9 -14 0 -14 9 0 9 -5 1 -20 -8 -15 -8 -20 1 -20 8
0 8 -4 -1 -15 -10 -12 -10 -15 1 -15 11 0 11 -2 -1 -10 -12 -8 -12 -10 -1 -10
11 0 11 -3 0 -17 -11 -13 -11 -17 -1 -21 10 -3 10 -7 1 -18 -9 -11 -9 -14 0
-14 9 0 9 -5 1 -20 -8 -15 -8 -20 1 -20 8 0 8 -4 -1 -15 -10 -12 -10 -15 1
-15 11 0 11 -2 -1 -10 -12 -8 -12 -10 -1 -10 11 0 11 -3 0 -17 -11 -13 -11
-17 -1 -21 10 -3 10 -7 1 -18 -9 -11 -9 -14 0 -14 9 0 9 -5 1 -20 -8 -15 -8
-20 1 -20 8 0 8 -4 -1 -15 -10 -12 -10 -15 1 -15 12 0 12 -2 0 -9 -11 -7 -11
-9 0 -14 12 -4 11 -7 -1 -16 -13 -10 -13 -12 -1 -20 12 -8 12 -12 2 -25 -11
-12 -11 -16 -1 -16 10 0 10 -3 0 -15 -10 -12 -10 -15 0 -15 10 0 10 -3 0 -15
-10 -12 -10 -15 0 -15 10 0 10 -4 -1 -16 -10 -13 -10 -17 2 -26 11 -7 11 -11
2 -15 -7 -2 -13 -9 -13 -14 0 -6 4 -8 9 -5 11 7 9 -13 -2 -31 -5 -8 -3 -13 4
-13 8 0 8 -4 -1 -15 -10 -12 -10 -15 0 -15 10 0 10 -3 0 -15 -10 -12 -10 -15
0 -15 10 0 10 -3 0 -15 -10 -12 -10 -15 0 -15 10 0 10 -3 0 -15 -10 -12 -10
-15 0 -15 10 0 10 -4 -1 -16 -10 -13 -10 -17 2 -26 11 -7 11 -11 2 -15 -7 -2
-13 -9 -13 -14 0 -6 6 -7 13 -3 9 6 9 5 0 -7 -21 -26 28 -61 53 -37 3 4 15 3
25 -3 14 -7 19 -6 19 3 0 9 3 9 10 -2 9 -13 10 -13 10 0 0 9 3 11 8 5 8 -11
62 -15 62 -5 0 4 23 4 50 0 28 -4 53 -3 56 2 3 4 14 3 25 -2 14 -8 19 -7 19 2
0 9 3 9 10 -2 9 -13 10 -13 10 0 0 9 3 11 8 5 7 -10 62 -15 62 -5 0 3 18 5 40
5 22 0 40 -4 40 -10 0 -5 5 -3 10 5 5 8 10 11 10 5 0 -5 14 -10 30 -10 17 0
30 2 30 5 0 3 36 4 80 3 76 -1 79 -1 67 18 -6 10 -15 19 -19 19 -5 0 -8 6 -8
14 0 7 -7 19 -15 26 -9 7 -14 19 -11 27 3 8 1 11 -4 8 -6 -3 -10 1 -10 9 0 9
-5 16 -11 16 -5 0 -7 5 -4 10 3 6 1 10 -6 10 -7 0 -10 3 -6 6 3 3 -3 15 -14
27 -10 11 -19 27 -19 34 0 8 -4 11 -10 8 -6 -3 -7 1 -4 9 3 9 1 16 -6 16 -6 0
-9 4 -6 8 3 5 -4 14 -14 22 -10 8 -17 17 -14 21 2 4 -6 17 -18 28 -14 14 -17
21 -8 21 9 0 7 5 -6 15 -10 8 -15 15 -9 15 5 0 -1 7 -13 16 -12 8 -20 19 -17
24 3 5 0 14 -7 22 -7 7 -20 22 -28 32 -13 18 -13 19 0 12 8 -4 4 2 -9 13 -13
12 -19 21 -15 21 5 0 4 4 -1 8 -6 4 -19 24 -30 45 -11 20 -23 37 -28 37 -4 0
-5 5 -2 10 3 6 2 10 -2 10 -9 0 -22 21 -49 82 -9 21 -20 35 -25 33 -4 -3 -13
11 -19 30 -6 19 -16 35 -21 35 -6 0 -7 5 -4 10 3 6 1 10 -4 10 -6 0 -11 10
-11 22 0 12 -3 19 -6 15 -8 -8 -33 16 -27 26 2 4 -5 19 -16 33 -11 15 -18 31
-14 37 3 6 1 7 -5 3 -7 -4 -12 -1 -12 8 0 8 -9 24 -21 35 -12 11 -18 24 -15
29 3 6 -1 12 -9 16 -8 3 -15 12 -15 20 0 8 -5 16 -10 18 -6 2 -12 13 -13 25 0
12 -5 19 -9 17 -5 -3 -13 7 -18 23 -12 32 -47 61 -47 37z"/>
<path d="M1505 2171 c-3 -6 -11 -8 -17 -5 -7 5 -8 2 -4 -5 5 -7 0 -21 -10 -32
-9 -10 -14 -19 -10 -19 4 0 1 -7 -6 -15 -31 -34 -36 -43 -31 -49 4 -3 1 -6 -6
-6 -7 0 -9 -4 -6 -10 3 -5 1 -10 -5 -10 -6 0 -8 -5 -5 -10 3 -6 -1 -13 -9 -16
-9 -3 -16 -15 -16 -26 0 -10 -4 -16 -10 -13 -5 3 -10 -1 -10 -9 0 -9 -5 -16
-11 -16 -5 0 -8 -4 -4 -9 3 -5 0 -15 -7 -23 -7 -7 -20 -22 -28 -32 -13 -18
-13 -19 0 -12 10 5 9 3 -2 -6 -9 -8 -18 -21 -20 -28 -4 -17 -10 -26 -43 -64
-28 -32 -32 -41 -12 -29 6 4 -3 -12 -21 -35 -19 -23 -30 -42 -25 -42 4 0 0 -7
-11 -15 -10 -8 -15 -19 -10 -26 4 -8 3 -10 -4 -5 -7 4 -12 1 -12 -8 0 -9 -5
-16 -11 -16 -5 0 -8 -4 -5 -8 3 -5 -6 -20 -20 -35 -14 -15 -19 -27 -13 -27 7
0 2 -9 -10 -19 -12 -11 -22 -22 -22 -25 3 -20 0 -26 -9 -21 -5 3 -10 0 -10 -8
0 -8 -10 -27 -22 -43 -13 -16 -21 -30 -18 -31 3 -1 -3 -12 -13 -23 -10 -12
-15 -26 -11 -32 4 -7 3 -8 -4 -4 -7 4 -12 1 -12 -8 0 -9 -5 -16 -11 -16 -5 0
-8 -4 -4 -9 3 -6 -1 -13 -9 -18 -8 -4 -15 -12 -16 -18 -3 -18 -52 -95 -60 -95
-4 0 -7 -8 -6 -17 0 -10 -5 -17 -12 -15 -8 1 -11 -2 -7 -8 3 -6 -1 -17 -9 -26
-9 -9 -14 -20 -11 -25 4 -5 0 -9 -7 -9 -8 0 -15 -10 -15 -22 -1 -13 -7 -24
-13 -26 -5 -2 -10 -8 -10 -14 0 -6 7 -8 15 -4 8 3 15 0 15 -6 0 -7 4 -7 14 1
11 9 16 9 21 0 6 -8 10 -7 16 2 5 8 9 9 9 3 0 -7 17 -8 50 -4 33 4 50 3 50 -4
0 -6 5 -4 10 4 5 8 10 11 10 5 0 -5 14 -10 30 -10 17 0 30 2 30 5 0 3 18 5 40
5 22 0 40 -4 40 -10 0 -5 5 -3 10 5 5 8 10 11 10 5 0 -5 14 -10 30 -10 17 0
30 3 30 6 0 3 23 3 50 -1 28 -4 53 -3 56 2 3 4 14 3 25 -2 14 -8 19 -7 19 2 0
10 2 10 9 -1 7 -11 9 -11 14 0 3 8 6 9 6 4 1 -13 110 -8 127 6 9 7 10 18 4 33
-4 13 -4 29 1 39 7 12 6 17 -3 17 -10 0 -10 2 0 9 8 4 14 12 14 16 0 4 -6 12
-14 16 -11 7 -11 9 1 9 11 0 11 3 0 17 -12 15 -12 16 1 8 13 -8 13 -7 1 8 -7
9 -9 17 -4 17 11 0 11 29 -1 48 -4 6 -3 12 3 12 7 0 7 8 2 23 -5 14 -5 30 0
40 7 12 6 17 -3 17 -10 0 -10 2 0 9 17 11 17 21 0 32 -10 7 -10 9 2 9 13 0 13
1 0 10 -12 8 -12 10 -1 10 11 0 11 3 1 15 -9 10 -9 15 -1 15 6 0 11 5 11 11 0
5 -4 8 -9 4 -10 -6 -7 27 4 45 3 6 1 10 -5 10 -6 0 -8 4 -5 10 12 19 14 50 3
50 -6 0 -5 7 3 17 12 15 12 16 -1 8 -12 -7 -13 -6 -3 7 7 8 10 18 6 22 -9 9
-13 37 -5 32 4 -2 7 14 7 35 0 21 -4 39 -9 39 -4 0 -2 8 5 17 12 15 12 16 -1
8 -12 -7 -13 -6 -3 7 7 8 10 18 6 22 -9 9 -13 37 -5 32 4 -2 7 14 7 35 0 21
-4 39 -9 39 -4 0 -2 8 5 17 12 15 12 16 -1 8 -12 -7 -13 -6 -3 7 7 8 10 18 6
22 -9 9 -13 37 -5 32 4 -2 7 14 7 35 0 21 -4 39 -9 39 -4 0 -2 8 5 17 12 15
12 16 -1 8 -13 -7 -13 -6 -2 7 10 12 10 18 1 23 -8 6 -7 10 2 16 11 7 11 9 -1
9 -13 0 -13 1 0 10 11 7 11 10 2 10 -10 0 -10 5 -1 21 12 23 -3 51 -16 30z"/>
<path d="M1756 2747 c3 -10 9 -15 12 -12 3 3 0 11 -7 18 -10 9 -11 8 -5 -6z"/>
</g>
</svg>
